<svg width="208" height="51" viewBox="0 0 208 51" fill="none" xmlns="http://www.w3.org/2000/svg">
<mask id="mask0_42078_437" style="mask-type:luminance" maskUnits="userSpaceOnUse" x="10" y="5" width="13" height="35">
<path d="M10.1341 5.09998H22.44V39.304H10.1341V5.09998Z" fill="white"/>
</mask>
<g mask="url(#mask0_42078_437)">
<path d="M10.1436 24.3019V20.0392C11.009 19.9919 11.6619 19.8612 12.1007 19.6482C12.539 19.4346 12.9188 19.0771 13.2392 18.5735C13.5595 18.0704 13.7789 17.4398 13.8974 16.6817C13.992 16.1138 14.0398 15.1246 14.0398 13.7157C14.0398 11.4186 14.1466 9.81633 14.3596 8.91108C14.5737 8.0053 14.9588 7.27695 15.5161 6.72605C16.0734 6.17567 16.8862 5.74058 17.9535 5.42076C18.6765 5.20773 19.8155 5.10095 21.3689 5.10095H22.3119V9.3467C20.9954 9.3467 20.1502 9.42055 19.7773 9.56823C19.4033 9.71645 19.1276 9.94117 18.9496 10.2429C18.7716 10.5447 18.6829 11.0632 18.6829 11.7974C18.6829 12.5432 18.6292 13.9585 18.5225 16.0426C18.4635 17.2145 18.3094 18.1649 18.0603 18.8933C17.8111 19.6216 17.4934 20.2225 17.1083 20.6958C16.7231 21.1697 16.1329 21.6611 15.3381 22.1706C16.0383 22.5732 16.6105 23.0439 17.0551 23.5826C17.4998 24.1213 17.8403 24.7753 18.0778 25.5451C18.3153 26.3148 18.4693 27.3455 18.5405 28.6353C18.6234 30.6015 18.6648 31.8563 18.6648 32.4014C18.6648 33.1828 18.7599 33.7274 18.9496 34.0355C19.1392 34.3431 19.4272 34.5774 19.8123 34.7373C20.1975 34.8966 21.031 34.9769 22.3119 34.9769V39.2396H21.3689C19.7682 39.2396 18.5405 39.1121 17.6863 38.8576C16.8326 38.6032 16.1122 38.1798 15.5251 37.588C14.9381 36.9956 14.5434 36.2641 14.3421 35.3939C14.1402 34.5237 14.0398 33.1531 14.0398 31.2826C14.0398 29.1039 13.9447 27.6881 13.755 27.0368C13.4942 26.0896 13.0995 25.4117 12.5719 25.0032C12.0439 24.5946 11.2348 24.3609 10.1436 24.3019Z" fill="white"/>
</g>
<path d="M37.1338 13.9448H34.349V11.1648H37.1338V13.9448Z" fill="#7ED957"/>
<path d="M36.4762 19.5043H34.349V17.3809H36.4762V19.5043Z" fill="#7ED957"/>
<mask id="mask1_42078_437" style="mask-type:luminance" maskUnits="userSpaceOnUse" x="23" y="11" width="14" height="35">
<path d="M23.936 11.696H36.312V45.9001H23.936V11.696Z" fill="white"/>
</mask>
<g mask="url(#mask1_42078_437)">
<path d="M28.3757 16.0688V13.9449H30.5033V16.0688H28.3757ZM33.7875 25.9995C33.2536 25.5909 32.8562 24.9131 32.5954 23.9658C32.4519 23.4314 32.3664 22.4071 32.3388 20.8947H30.5033V18.1146H32.2979C32.2532 17.0426 32.1597 16.2075 32.0168 15.6087C31.8097 14.7386 31.4149 14.0044 30.8343 13.4062C30.2531 12.8085 29.5354 12.3851 28.6817 12.136C27.8274 11.8873 26.6002 11.7635 24.999 11.7635H24.0561V16.0082C25.3964 16.0082 26.2592 16.0885 26.6443 16.2478C27.03 16.4083 27.2967 16.6362 27.4454 16.9321C27.5931 17.228 27.6733 17.8198 27.6856 18.7081C27.7445 21.5263 27.8391 23.3501 27.9698 24.1789C28.1711 25.3869 28.551 26.3809 29.1082 27.1629C29.5115 27.7074 30.1522 28.2642 31.0298 28.8326C30.3535 29.2231 29.7989 29.6762 29.3664 30.1916C28.9335 30.7063 28.5866 31.3343 28.3257 32.0743C28.0649 32.8143 27.905 33.7998 27.8455 35.0312C27.7504 37.0681 27.6999 38.4472 27.6946 39.1697C27.6882 39.8922 27.5931 40.4043 27.4093 40.7066C27.2255 41.0083 26.9381 41.2394 26.5466 41.3993C26.155 41.5592 25.3247 41.6389 24.0561 41.6389V45.9017H24.999C26.5524 45.9017 27.6914 45.7949 28.4144 45.5819C29.4939 45.2621 30.3121 44.8275 30.8699 44.2766C31.4272 43.7257 31.8097 42.9947 32.0168 42.0831C32.2246 41.1709 32.3287 39.5665 32.3287 37.2694C32.3287 35.8722 32.376 34.8894 32.4705 34.321C32.6012 33.5634 32.8238 32.9328 33.1378 32.4292C33.4517 31.9261 33.8284 31.568 34.2677 31.355C34.706 31.1414 35.3589 31.0113 36.2243 30.964V26.7007C35.1332 26.6417 34.3209 26.408 33.7875 25.9995Z" fill="#7ED957"/>
</g>
<path d="M42.5627 8.5452H40.435V6.42126H42.5627V8.5452Z" fill="#7ED957"/>
<path d="M31.8952 11.1647H27.9241V7.19946H31.8952V11.1647Z" fill="#7ED957"/>
<path d="M80.3082 31.0767V34H71.1509V31.0767H80.3082ZM72.3627 15.8104V34H68.6149V15.8104H72.3627ZM86.0299 20.4828V34H82.4195V20.4828H86.0299ZM82.1946 16.9598C82.1946 16.4351 82.3778 16.002 82.7443 15.6605C83.1108 15.319 83.6021 15.1483 84.2184 15.1483C84.8264 15.1483 85.3137 15.319 85.6801 15.6605C86.0549 16.002 86.2423 16.4351 86.2423 16.9598C86.2423 17.4845 86.0549 17.9176 85.6801 18.259C85.3137 18.6005 84.8264 18.7712 84.2184 18.7712C83.6021 18.7712 83.1108 18.6005 82.7443 18.259C82.3778 17.9176 82.1946 17.4845 82.1946 16.9598ZM92.6011 23.2811V34H88.9907V20.4828H92.3763L92.6011 23.2811ZM92.1014 26.7666H91.102C91.102 25.8255 91.2144 24.9594 91.4393 24.1681C91.6725 23.3686 92.0098 22.6773 92.4512 22.0943C92.901 21.503 93.4548 21.0449 94.1128 20.7201C94.7707 20.3953 95.5328 20.2329 96.399 20.2329C96.9986 20.2329 97.5483 20.3245 98.048 20.5077C98.5477 20.6826 98.9767 20.9616 99.3348 21.3448C99.7012 21.7195 99.9844 22.2109 100.184 22.8189C100.384 23.4186 100.484 24.139 100.484 24.9802V34H96.8862V25.3799C96.8862 24.7636 96.8029 24.2889 96.6363 23.9558C96.4698 23.6226 96.2324 23.3894 95.9242 23.2562C95.6244 23.1229 95.2621 23.0563 94.8374 23.0563C94.371 23.0563 93.9629 23.1521 93.6131 23.3436C93.2716 23.5352 92.9884 23.8017 92.7635 24.1432C92.5387 24.4763 92.3721 24.8677 92.2638 25.3175C92.1556 25.7672 92.1014 26.2503 92.1014 26.7666ZM100.147 26.3544L98.8601 26.5168C98.8601 25.634 98.9683 24.8136 99.1849 24.0557C99.4097 23.2978 99.7387 22.6315 100.172 22.0569C100.613 21.4822 101.159 21.0366 101.808 20.7201C102.458 20.3953 103.208 20.2329 104.057 20.2329C104.707 20.2329 105.298 20.3287 105.831 20.5202C106.364 20.7035 106.818 20.9991 107.193 21.4072C107.576 21.807 107.867 22.3317 108.067 22.9813C108.275 23.6309 108.38 24.4263 108.38 25.3675V34H104.769V25.3675C104.769 24.7428 104.686 24.2681 104.519 23.9433C104.361 23.6101 104.128 23.3811 103.82 23.2562C103.52 23.1229 103.162 23.0563 102.745 23.0563C102.312 23.0563 101.933 23.1437 101.608 23.3186C101.284 23.4852 101.013 23.7184 100.796 24.0182C100.58 24.3181 100.417 24.6679 100.309 25.0676C100.201 25.4591 100.147 25.888 100.147 26.3544ZM118.461 30.9517V24.9302C118.461 24.4971 118.391 24.1265 118.249 23.8183C118.107 23.5019 117.887 23.2562 117.587 23.0813C117.295 22.9064 116.916 22.8189 116.45 22.8189C116.05 22.8189 115.705 22.8897 115.413 23.0313C115.122 23.1645 114.897 23.3603 114.738 23.6185C114.58 23.8683 114.501 24.164 114.501 24.5054H110.903C110.903 23.9308 111.036 23.3853 111.303 22.8689C111.569 22.3525 111.957 21.8986 112.465 21.5072C112.973 21.1074 113.577 20.7951 114.276 20.5702C114.984 20.3453 115.775 20.2329 116.65 20.2329C117.699 20.2329 118.632 20.4078 119.448 20.7576C120.264 21.1074 120.906 21.6321 121.372 22.3317C121.847 23.0313 122.084 23.9058 122.084 24.9552V30.7394C122.084 31.4806 122.13 32.0886 122.222 32.5633C122.313 33.0297 122.447 33.4378 122.621 33.7876V34H118.986C118.811 33.6335 118.678 33.1755 118.586 32.6258C118.503 32.0678 118.461 31.5098 118.461 30.9517ZM118.936 25.7672L118.961 27.8036H116.95C116.475 27.8036 116.063 27.8577 115.713 27.966C115.363 28.0742 115.076 28.2283 114.851 28.4282C114.626 28.6198 114.459 28.8446 114.351 29.1028C114.251 29.361 114.201 29.6442 114.201 29.9523C114.201 30.2605 114.272 30.5395 114.414 30.7893C114.555 31.0309 114.759 31.2224 115.026 31.364C115.292 31.4973 115.605 31.5639 115.963 31.5639C116.504 31.5639 116.975 31.4556 117.374 31.2391C117.774 31.0225 118.082 30.756 118.299 30.4395C118.524 30.1231 118.64 29.8232 118.649 29.5401L119.598 31.0642C119.465 31.4057 119.282 31.7596 119.048 32.1261C118.824 32.4925 118.536 32.8382 118.186 33.163C117.837 33.4795 117.416 33.7418 116.925 33.95C116.433 34.1499 115.85 34.2499 115.176 34.2499C114.318 34.2499 113.539 34.0791 112.84 33.7377C112.148 33.3879 111.599 32.909 111.19 32.301C110.791 31.6847 110.591 30.9851 110.591 30.2022C110.591 29.4943 110.724 28.8654 110.991 28.3158C111.257 27.7661 111.649 27.3038 112.165 26.9291C112.69 26.5459 113.343 26.2586 114.126 26.0671C114.909 25.8672 115.817 25.7672 116.85 25.7672H118.936ZM133.165 15.8104H136.339L141.011 29.1653L145.683 15.8104H148.856L142.285 34H139.737L133.165 15.8104ZM131.454 15.8104H134.615L135.189 28.828V34H131.454V15.8104ZM147.407 15.8104H150.58V34H146.833V28.828L147.407 15.8104ZM153.066 27.3788V27.1164C153.066 26.1253 153.208 25.2134 153.491 24.3805C153.774 23.5393 154.187 22.8106 154.728 22.1943C155.269 21.578 155.936 21.0991 156.727 20.7576C157.518 20.4078 158.426 20.2329 159.45 20.2329C160.475 20.2329 161.387 20.4078 162.186 20.7576C162.986 21.0991 163.656 21.578 164.198 22.1943C164.747 22.8106 165.164 23.5393 165.447 24.3805C165.73 25.2134 165.872 26.1253 165.872 27.1164V27.3788C165.872 28.3616 165.73 29.2735 165.447 30.1147C165.164 30.9476 164.747 31.6763 164.198 32.301C163.656 32.9173 162.99 33.3962 162.199 33.7377C161.408 34.0791 160.5 34.2499 159.475 34.2499C158.451 34.2499 157.539 34.0791 156.739 33.7377C155.948 33.3962 155.278 32.9173 154.728 32.301C154.187 31.6763 153.774 30.9476 153.491 30.1147C153.208 29.2735 153.066 28.3616 153.066 27.3788ZM156.664 27.1164V27.3788C156.664 27.9451 156.714 28.474 156.814 28.9654C156.914 29.4568 157.072 29.8899 157.289 30.2646C157.514 30.6311 157.805 30.9184 158.164 31.1266C158.522 31.3349 158.959 31.439 159.475 31.439C159.975 31.439 160.404 31.3349 160.762 31.1266C161.12 30.9184 161.408 30.6311 161.624 30.2646C161.841 29.8899 161.999 29.4568 162.099 28.9654C162.207 28.474 162.261 27.9451 162.261 27.3788V27.1164C162.261 26.5668 162.207 26.0504 162.099 25.5673C161.999 25.076 161.836 24.6429 161.612 24.2681C161.395 23.885 161.108 23.5851 160.75 23.3686C160.391 23.1521 159.958 23.0438 159.45 23.0438C158.942 23.0438 158.509 23.1521 158.151 23.3686C157.801 23.5851 157.514 23.885 157.289 24.2681C157.072 24.6429 156.914 25.076 156.814 25.5673C156.714 26.0504 156.664 26.5668 156.664 27.1164ZM171.606 23.3686V34H168.008V20.4828H171.381L171.606 23.3686ZM171.081 26.7666H170.107C170.107 25.7672 170.236 24.8677 170.494 24.0682C170.752 23.2603 171.114 22.5732 171.581 22.0069C172.047 21.4322 172.601 20.995 173.242 20.6951C173.892 20.387 174.617 20.2329 175.416 20.2329C176.049 20.2329 176.628 20.3245 177.153 20.5077C177.677 20.691 178.127 20.9825 178.502 21.3822C178.885 21.782 179.176 22.3109 179.376 22.9688C179.585 23.6268 179.689 24.4305 179.689 25.3799V34H176.066V25.3675C176.066 24.7678 175.982 24.3014 175.816 23.9683C175.649 23.6351 175.404 23.4019 175.079 23.2687C174.762 23.1271 174.371 23.0563 173.905 23.0563C173.421 23.0563 173.001 23.1521 172.643 23.3436C172.293 23.5352 172.001 23.8017 171.768 24.1432C171.543 24.4763 171.373 24.8677 171.256 25.3175C171.139 25.7672 171.081 26.2503 171.081 26.7666ZM188.646 34.2499C187.597 34.2499 186.656 34.0833 185.823 33.7501C184.99 33.4087 184.282 32.9381 183.699 32.3385C183.124 31.7388 182.683 31.0434 182.375 30.2521C182.066 29.4526 181.912 28.6031 181.912 27.7036V27.2039C181.912 26.1795 182.058 25.2425 182.35 24.393C182.641 23.5435 183.058 22.8064 183.599 22.1818C184.149 21.5571 184.815 21.0782 185.598 20.7451C186.381 20.4036 187.264 20.2329 188.246 20.2329C189.204 20.2329 190.054 20.3911 190.795 20.7076C191.536 21.0241 192.157 21.4739 192.656 22.0569C193.164 22.6398 193.547 23.3394 193.806 24.1556C194.064 24.9635 194.193 25.863 194.193 26.8541V28.3532H183.449V25.9546H190.657V25.6798C190.657 25.1801 190.566 24.7345 190.383 24.343C190.208 23.9433 189.941 23.6268 189.583 23.3936C189.225 23.1604 188.767 23.0438 188.209 23.0438C187.734 23.0438 187.326 23.1479 186.985 23.3561C186.643 23.5643 186.364 23.8558 186.147 24.2306C185.939 24.6054 185.781 25.0468 185.673 25.5548C185.573 26.0546 185.523 26.6042 185.523 27.2039V27.7036C185.523 28.245 185.598 28.7447 185.748 29.2028C185.906 29.6608 186.127 30.0564 186.41 30.3896C186.701 30.7227 187.051 30.9809 187.459 31.1641C187.876 31.3474 188.346 31.439 188.871 31.439C189.521 31.439 190.124 31.314 190.682 31.0642C191.249 30.806 191.736 30.4187 192.144 29.9024L193.893 31.8013C193.61 32.2094 193.223 32.6008 192.731 32.9756C192.248 33.3504 191.665 33.6585 190.982 33.9001C190.299 34.1333 189.521 34.2499 188.646 34.2499ZM200.077 32.4759L203.662 20.4828H207.523L202.088 36.0363C201.972 36.3778 201.814 36.7443 201.614 37.1357C201.422 37.5271 201.16 37.8978 200.827 38.2476C200.502 38.6057 200.089 38.8972 199.59 39.1221C199.098 39.3469 198.495 39.4594 197.778 39.4594C197.437 39.4594 197.158 39.4385 196.941 39.3969C196.725 39.3553 196.467 39.297 196.167 39.222V36.586C196.258 36.586 196.354 36.586 196.454 36.586C196.554 36.5943 196.65 36.5985 196.741 36.5985C197.216 36.5985 197.603 36.5444 197.903 36.4361C198.203 36.3278 198.445 36.1613 198.628 35.9364C198.811 35.7198 198.957 35.4367 199.065 35.0869L200.077 32.4759ZM198.578 20.4828L201.514 30.2771L202.026 34.0874L199.577 34.3498L194.718 20.4828H198.578Z" fill="#E1E1E6"/>
</svg>
